<?xml version="1.0" encoding="UTF-8"?>
<svg xmlns="http://www.w3.org/2000/svg" width="800" height="800" viewBox="0 0 800 800">
  <defs>
    <style>
      .cls-1 {
        stroke-width: 3px;
      }

      .cls-1, .cls-2, .cls-3, .cls-4, .cls-5, .cls-6 {
        stroke-linecap: round;
      }

      .cls-1, .cls-3, .cls-5, .cls-7 {
        stroke: #fff;
      }

      .cls-1, .cls-3, .cls-7 {
        stroke-miterlimit: 10;
      }

      .cls-1, .cls-5, .cls-6 {
        fill: none;
      }

      .cls-8 {
        fill: #00c6ba;
      }

      .cls-9, .cls-3, .cls-4, .cls-7 {
        fill: #fff;
      }

      .cls-10, .cls-2 {
        fill: #101050;
      }

      .cls-2, .cls-3, .cls-4, .cls-5, .cls-6 {
        stroke-width: 2px;
      }

      .cls-2, .cls-4, .cls-5, .cls-6 {
        stroke-linejoin: round;
      }

      .cls-2, .cls-4, .cls-6 {
        stroke: #101050;
      }
    </style>
  </defs>
  <g id="Layer_4_copy" data-name="Layer 4 copy">
    <g>
      <g>
        <path class="cls-10" d="m199.14,635.15l-16.95,29.35c-1.21,2.09.3,4.71,2.72,4.71h33.89c2.42,0,3.93-2.62,2.72-4.71l-16.95-29.35c-1.21-2.09-4.23-2.09-5.44,0h0Z"/>
        <line class="cls-5" x1="201.75" y1="656.05" x2="201.75" y2="644.46"/>
        <circle class="cls-5" cx="201.75" cy="661.33" r=".45"/>
      </g>
      <rect class="cls-5" x="159.35" y="448.08" width="214.26" height="265.01"/>
      <g>
        <rect class="cls-5" x="186.97" y="489.77" width="29.78" height="29.78"/>
        <rect class="cls-5" x="186.97" y="537.7" width="29.78" height="29.78"/>
        <rect class="cls-5" x="186.97" y="585.64" width="29.78" height="29.78"/>
      </g>
      <line class="cls-5" x1="233.83" y1="499.36" x2="339.56" y2="499.36"/>
      <line class="cls-5" x1="233.83" y1="509.96" x2="272.64" y2="509.96"/>
      <line class="cls-5" x1="233.83" y1="547.29" x2="326.84" y2="547.29"/>
      <line class="cls-5" x1="233.83" y1="557.9" x2="311.45" y2="557.9"/>
      <line class="cls-5" x1="233.83" y1="595.22" x2="332.62" y2="595.22"/>
      <line class="cls-5" x1="233.83" y1="605.83" x2="286.69" y2="605.83"/>
      <line class="cls-5" x1="233.83" y1="643.16" x2="322.93" y2="643.16"/>
      <line class="cls-5" x1="233.83" y1="653.76" x2="334.05" y2="653.76"/>
      <polyline class="cls-6" points="223.45 491.54 204.02 510.96 197.32 504.26"/>
      <polyline class="cls-6" points="223.45 540.43 204.02 559.86 197.32 553.15"/>
      <polyline class="cls-6" points="223.45 587.51 204.02 606.93 197.32 600.22"/>
    </g>
    <g>
      <rect class="cls-8" x="65.74" y="339.77" width="204.94" height="54.72" rx="26.07" ry="26.07"/>
      <g>
        <path class="cls-9" d="m124.72,357.58l-5.62,20.11h-4.75l-3.77-14.32-3.95,14.32-4.73.03-5.42-20.14h4.32l3.54,15.62,4.09-15.62h4.5l3.86,15.53,3.57-15.53h4.35Z"/>
        <path class="cls-9" d="m140.39,373.86h-8.01l-1.33,3.83h-4.24l7.23-20.14h4.7l7.23,20.14h-4.26l-1.33-3.83Zm-1.1-3.23l-2.91-8.41-2.91,8.41h5.82Z"/>
        <path class="cls-9" d="m159.78,377.69l-4.44-7.84h-1.9v7.84h-4.03v-20.11h7.55c1.56,0,2.88.27,3.98.82,1.1.55,1.92,1.29,2.46,2.22s.82,1.97.82,3.13c0,1.33-.38,2.52-1.15,3.59-.77,1.07-1.91,1.8-3.43,2.2l4.81,8.15h-4.67Zm-6.34-10.86h3.37c1.09,0,1.91-.26,2.45-.79.54-.53.81-1.26.81-2.2s-.27-1.64-.81-2.15c-.54-.51-1.35-.76-2.45-.76h-3.37v5.91Z"/>
        <path class="cls-9" d="m185.8,377.69h-4.03l-9.13-13.8v13.8h-4.03v-20.14h4.03l9.13,13.83v-13.83h4.03v20.14Z"/>
        <path class="cls-9" d="m194.53,357.58v20.11h-4.03v-20.11h4.03Z"/>
        <path class="cls-9" d="m216.43,377.69h-4.03l-9.13-13.8v13.8h-4.03v-20.14h4.03l9.13,13.83v-13.83h4.03v20.14Z"/>
        <path class="cls-9" d="m235.13,363.63c-.46-.84-1.09-1.49-1.9-1.93-.81-.44-1.75-.66-2.82-.66-1.19,0-2.25.27-3.17.81-.92.54-1.64,1.31-2.16,2.31-.52,1-.78,2.15-.78,3.46s.26,2.52.79,3.52c.53,1,1.26,1.77,2.2,2.31.94.54,2.04.81,3.29.81,1.54,0,2.79-.41,3.77-1.22.98-.82,1.62-1.95,1.93-3.41h-6.92v-3.08h10.89v3.52c-.27,1.4-.85,2.7-1.73,3.89-.88,1.19-2.02,2.15-3.41,2.87-1.39.72-2.95,1.08-4.68,1.08-1.94,0-3.69-.44-5.26-1.31-1.57-.87-2.79-2.09-3.69-3.65-.89-1.56-1.34-3.32-1.34-5.3s.45-3.75,1.34-5.32c.89-1.57,2.12-2.79,3.69-3.66,1.57-.87,3.31-1.31,5.23-1.31,2.27,0,4.24.55,5.91,1.66,1.67,1.1,2.82,2.66,3.46,4.65h-4.64Z"/>
      </g>
    </g>
    <path class="cls-5" d="m309.51,325.81H80.5c-8.25,0-15-6.75-15-15V45.57c0-8.25,6.75-15,15-15h304.11c8.25,0,15,6.75,15,15v192.52"/>
    <g>
      <g>
        <rect class="cls-2" x="108.15" y="258.65" width="44.44" height="17.3"/>
        <rect class="cls-2" x="176.22" y="235.82" width="44.44" height="40.13"/>
        <rect class="cls-2" x="244.47" y="257.87" width="44.44" height="18.08"/>
      </g>
      <line class="cls-2" x1="112.28" y1="292.02" x2="147.91" y2="292.02"/>
      <line class="cls-2" x1="180.62" y1="292.02" x2="216.25" y2="292.02"/>
      <line class="cls-2" x1="247.99" y1="292.02" x2="283.62" y2="292.02"/>
    </g>
    <g>
      <rect class="cls-2" x="312.54" y="106.09" width="44.44" height="169.85"/>
      <line class="cls-2" x1="248.61" y1="292.02" x2="284.24" y2="292.02"/>
    </g>
    <g>
      <path class="cls-2" d="m355.16,227.35c-14.71,2.18-27.48,9.63-37.6,19.29-4.7,4.48-8.32,9.75-10.95,15.43-2.76,5.97-4.65,12.24-6.76,18.41-.22.63-.62,1.07-1.11,1.35v1.26h78.02v-54.4c-7.1-1.48-14.28-2.43-21.6-1.34Z"/>
      <line class="cls-2" x1="306.47" y1="308.59" x2="369.03" y2="308.59"/>
    </g>
    <path class="cls-4" d="m557.34,219.57c0-7.15-5.8-12.94-12.94-12.94s-12.94,5.79-12.94,12.94,5.79,12.94,12.94,12.94,12.94-5.79,12.94-12.94Z"/>
    <path class="cls-6" d="m531.45,242.31c1.54.88,3.18,1.61,4.9,2.16"/>
    <path class="cls-6" d="m568.56,209.54c-3.94-9.47-13.28-16.13-24.17-16.13-14.45,0-26.16,11.71-26.16,26.16,0,4.71,1.24,9.13,3.42,12.94"/>
    <path class="cls-6" d="m558.53,254.54c13.82-5.59,23.58-19.14,23.58-34.97,0-.83-.03-1.66-.08-2.47"/>
    <path class="cls-6" d="m525.99,186.65c-11.52,6.45-19.31,18.78-19.31,32.92,0,11.09,4.79,21.06,12.41,27.96"/>
    <line class="cls-6" x1="544.39" y1="232.51" x2="544.39" y2="262.55"/>
    <g>
      <circle class="cls-10" cx="130.36" cy="90.35" r="37.84"/>
      <path class="cls-7" d="m122.27,101.63l1.73-2.54c1.91,1.62,4.19,2.97,6.93,2.97,3.32,0,5.01-1.81,5.01-4.61,0-7.28-12.54-5.7-12.54-14.43,0-4.51,3.3-7.58,8.02-7.58,3.55,0,5.71,1.5,7.54,3.44l-1.97,2.19c-1.67-1.61-3.04-2.55-5.46-2.55-2.75,0-4.52,1.73-4.52,4.32,0,6.53,12.54,4.72,12.54,14.37,0,4.78-3.41,7.94-8.63,7.94-3.2,0-6.54-1.53-8.66-3.5Zm7.65-30.6h2.7v5.77h-2.7v-5.77Zm0,32.79h2.7v5.7h-2.7v-5.7Z"/>
    </g>
    <g>
      <path class="cls-2" d="m577.33,708.09v38.17c0,17.64-13.21,32.09-29.35,32.09h-1.84c-.51,0-1.01-.02-1.51-.05h-.07c-.5.03-1,.05-1.51.05h-1.84c-16.14,0-29.35-14.45-29.35-32.09v-38.17h65.46Z"/>
      <path class="cls-4" d="m605.17,696.39v11.99c0,14.84-12.08,26.92-26.92,26.92-.15,0-.32,0-.47,0h0s-66.84,0-66.84,0c-14.85,0-26.92-12.08-26.92-26.92v-11.86c.08-14.77,12.12-15.06,26.92-15.06s26.5,11.66,26.9,26.15h13.5c.4-14.49,12.31-26.15,26.91-26.15s26.77.22,26.92,14.93Z"/>
      <path class="cls-4" d="m662.98,533.83c7.81,7.44,16.13,16.3,23.92,26.42,34.28,44.52,41.47,91.53,20.78,135.96l-21.22-9.88c40.98-88.02-67.79-158.48-68.89-159.18l12.56-19.75c.89.56,15.61,10.01,32.86,26.44Z"/>
      <g>
        <path class="cls-10" d="m636.42,511.82l-13.7,18.98c-3.24-2.34-5.2-3.59-5.22-3.6l12.57-19.75c.25.16,2.56,1.64,6.35,4.37Z"/>
        <path class="cls-10" d="m660.36,531.49l-15.91,17.17c-3.43-3.17-7-6.29-10.62-9.27l14.87-18.08c3.97,3.27,7.9,6.69,11.66,10.18Zm11.06,10.89c3.64,3.81,7.13,7.72,10.38,11.63l-17.99,14.98c-2.92-3.5-6.05-7.02-9.33-10.45l16.93-16.16Zm19.96,24.05c3.11,4.37,6,8.84,8.6,13.27l-20.19,11.84c-2.25-3.84-4.77-7.73-7.49-11.55l19.08-13.56Zm15.98,27.42c2.27,4.97,4.25,10.02,5.87,15.02l-22.27,7.22c-1.34-4.14-2.99-8.34-4.89-12.49l21.28-9.74Zm9.89,30.81c1,5.42,1.63,10.91,1.86,16.32l-23.39.98c-.18-4.31-.68-8.69-1.48-13.03l23.02-4.27Zm1.35,32.78c-.56,5.39-1.53,10.83-2.87,16.18l-22.7-5.7c1.07-4.27,1.84-8.61,2.29-12.9l23.28,2.43Z"/>
        <path class="cls-10" d="m710.68,689.2c-.94,2.35-1.96,4.73-3.05,7.07l-21.22-9.88c.9-1.93,1.75-3.89,2.52-5.83l21.75,8.64Z"/>
      </g>
      <path class="cls-10" d="m723.72,722.5c0,.29-.03.57-.06.85-.13,1.31-.35,2.61-.68,3.9-.17.66-.36,1.31-.58,1.96-.11.32-.23.64-.34.96,0,.03-.03.05-.03.08-.12.3-.23.59-.36.88-.14.33-.29.67-.44.99-.15.32-.32.64-.48.96-.39.75-.81,1.48-1.27,2.18-.2.31-.4.6-.61.9-.27.39-.55.77-.86,1.13-.34.45-.7.88-1.09,1.3-.13.17-.29.33-.44.49-.46.5-.95.98-1.45,1.44-.39.35-.78.69-1.18,1.03-1.22.99-2.5,1.88-3.87,2.66-.68-.68-11.61-13.09-11.61-13.09.39-.1.77-.22,1.13-.34.12-.05.24-.09.36-.14.26-.09.5-.2.76-.31.23-.11.44-.22.66-.32.19-.1.37-.2.55-.31.21-.12.41-.25.62-.4.06-.04.13-.09.19-.14.06-.05.13-.08.18-.14.14-.1.29-.22.42-.32.23-.18.44-.37.65-.57.11-.1.21-.19.31-.3.1-.1.2-.2.29-.31.2-.22.38-.43.55-.66.14-.17.25-.34.38-.52.36-.53.68-1.11.93-1.71.09-.22.18-.44.26-.67.07-.24.15-.5.22-.75,0-.02,0-.04,0-.05.13-.5.21-1,.26-1.51.06-.68.06-1.36,0-2.04,0-.11-.02-.22-.04-.32-.03-.32-.08-.62-.15-.93-.02-.15-.05-.31-.1-.46-.06-.24-.13-.5-.21-.74-.66-2.16-1.94-4.21-3.69-5.87-1.26-1.2-2.76-2.21-4.47-2.93l-10.73-4.52-.52-.23-.42-.18c-.23-.1-.47-.19-.71-.28-.43-.16-.86-.3-1.31-.41-.12-.04-.23-.06-.34-.08-.17-.05-.34-.08-.51-.12-1.24-.25-2.49-.33-3.71-.26-.18,0-.36.02-.53.05-.08,0-.15,0-.23.02-.14.02-.28.04-.42.05-.17.02-.33.05-.5.08-.14.02-.26.05-.4.07,0,0-.03,0-.04,0-.2.05-.39.08-.58.14-.19.05-.38.11-.57.16-.14.03-.26.07-.39.12-.21.06-.4.14-.59.22,0,0-.03,0-.04.02-.1.04-.2.08-.3.12-.21.08-.41.17-.6.27-.06.03-.12.05-.17.08-.23.12-.47.24-.69.38-.23.13-.46.27-.68.42-.04.03-.07.05-.11.08-.23.14-.43.3-.64.47,0,0-.02,0-.03.02-.21.17-.41.35-.61.55-.11.09-.22.19-.31.3-.11.1-.21.2-.3.31-.2.21-.38.42-.55.65s-.34.46-.5.69h0c-.16.25-.31.5-.43.75-.15.26-.28.53-.4.81-.27.64-.47,1.3-.59,1.96,0,0,0,.02,0,.03-.04.15-.06.32-.08.48-.04.23-.06.46-.07.68,0,.02,0,.04,0,.05v.06c0,.11-.02.22-.02.33,0,.12,0,.23,0,.33v.04c0,.59.05,1.18.13,1.77.02.08.03.15.04.23.04.2.07.39.13.59,0,.05.02.09.03.14.04.2.1.4.16.59.02.05.04.12.05.17.05.19.11.36.17.54.03.05.04.12.07.17,0,0,0,.02,0,.03,0,.03.02.06.04.09,0,.03.02.06.04.09.05.13.09.25.14.38l.16.35s0,0,0,.02c.12.24.23.5.37.73.05.11.11.21.16.31,0,0-16.87.78-17.5.74h-.02c-.06-.24-.12-.49-.16-.74-.03-.14-.06-.3-.09-.44-.02-.1-.04-.19-.05-.28-.03-.1-.04-.19-.06-.29-.02-.05-.03-.11-.04-.16-.06-.29-.09-.57-.14-.86,0-.02,0-.05,0-.06-.04-.31-.09-.62-.13-.93v-.04c-.04-.34-.07-.68-.09-1.03,0-.05-.02-.12-.02-.17l-.03-.54c0-.13-.02-.26-.02-.39,0-.05,0-.11,0-.16-.02-.31-.03-.6-.03-.91.02-3.49.68-7.02,2.11-10.39.75-1.77,1.67-3.42,2.74-4.94,0,0,.02-.02.02-.02.35-.5.71-.99,1.1-1.46.22-.27.44-.53.67-.79.22-.25.43-.5.66-.73.24-.27.5-.53.76-.78.25-.24.5-.48.76-.71.25-.23.51-.46.77-.68.26-.23.52-.44.79-.65.53-.41,1.07-.81,1.62-1.19.02,0,.04-.02.04-.03.58-.39,1.16-.76,1.76-1.09.3-.17.6-.34.91-.5.55-.29,1.13-.57,1.7-.83.14-.06.29-.13.43-.18.23-.1.45-.2.68-.29.32-.14.65-.25.97-.37.62-.23,1.25-.43,1.9-.61.74-.22,1.48-.4,2.23-.54.23-.05.45-.1.68-.14.17-.04.35-.06.52-.09.55-.1,1.12-.17,1.68-.23.77-.08,1.54-.14,2.31-.16.33,0,.67-.02,1-.02.53,0,1.07,0,1.6.04.46.03.91.06,1.36.11.42.04.84.09,1.26.14.41.05.83.12,1.24.2.19.03.37.06.56.1.86.16,1.71.37,2.56.61.07.02.13.04.21.06.17.05.34.1.51.15.13.04.27.08.41.13.1.03.2.06.3.1.25.08.5.17.76.26l.08.03c.48.18.95.37,1.43.57l.78.33.61.26,10.28,4.34c6.66,2.81,11.84,7.63,15.07,13.37.65,1.13,1.22,2.29,1.69,3.49,0,0,0,.02,0,.03.25.6.47,1.21.67,1.83.61,1.84,1.04,3.74,1.26,5.66.2,1.67.24,3.37.12,5.06Z"/>
      <path class="cls-4" d="m452.26,541.27c-10.78,0-22.92-.68-35.54-2.63-55.52-8.59-93.15-37.68-108.82-84.12l22.18-7.48c31.03,92,158.39,68,159.67,67.75l4.53,22.97c-1.03.2-18.21,3.52-42.02,3.52Z"/>
      <g>
        <path class="cls-10" d="m486.67,538.89l-3.17-23.19c3.96-.54,6.24-.98,6.26-.99l4.52,22.97c-.29.06-2.98.58-7.61,1.21Z"/>
        <path class="cls-10" d="m455.77,541.15l-.32-23.41c4.67-.07,9.41-.27,14.09-.61l1.7,23.35c-5.13.37-10.33.6-15.46.67Zm-15.51-.26c-5.26-.25-10.49-.68-15.54-1.26l2.7-23.25c4.53.53,9.22.91,13.96,1.13l-1.12,23.38Zm-31.04-3.65c-5.27-1.02-10.44-2.26-15.38-3.68l6.46-22.5c4.28,1.23,8.79,2.3,13.39,3.2l-4.46,22.98Zm-30.48-8.83c-5.07-2.03-9.99-4.33-14.61-6.83l11.15-20.58c3.83,2.07,7.92,3.98,12.15,5.68l-8.69,21.74Zm-28.41-15.49c-4.47-3.23-8.7-6.78-12.6-10.54l16.26-16.84c3.1,2.99,6.49,5.82,10.06,8.41l-13.73,18.96Zm-23.58-22.81c-3.31-4.29-6.37-8.9-9.08-13.69l20.37-11.53c2.17,3.83,4.6,7.5,7.24,10.92l-18.53,14.3Z"/>
        <path class="cls-10" d="m310.57,461.66c-.95-2.35-1.84-4.78-2.67-7.22l22.18-7.48c.68,2.02,1.42,4.02,2.2,5.96l-21.71,8.74Z"/>
      </g>
      <rect class="cls-2" x="514.5" y="445.04" width="59.76" height="19.11"/>
      <path class="cls-4" d="m584.93,281.72h-81.1c-39.3,0-71.43,32.14-71.43,71.43v20.44c0,39.29,32.13,71.44,71.43,71.44h81.1c39.3,0,71.46-32.15,71.46-71.44v-20.44c0-39.29-32.16-71.43-71.46-71.43Z"/>
      <path class="cls-2" d="m503.83,407.22c-24.18,0-43.84-19.67-43.84-43.84h0c0-24.17,19.66-43.83,43.84-43.83h81.1c24.18,0,43.83,19.66,43.83,43.83h0c0,24.17-19.65,43.84-43.83,43.84h-81.1Z"/>
      <g>
        <path class="cls-10" d="m503.83,407.22c-24.18,0-43.84-19.67-43.84-43.84h0c0-24.17,19.66-43.83,43.84-43.83h81.1c24.18,0,43.83,19.66,43.83,43.83h0c0,24.17-19.65,43.84-43.83,43.84h-81.1Z"/>
        <path class="cls-6" d="m584.93,414.37h-81.1c-28.12,0-50.99-22.88-50.99-51s22.87-50.99,50.99-50.99h81.1c28.12,0,50.99,22.87,50.99,50.99s-22.87,51-50.99,51Z"/>
      </g>
      <g>
        <path class="cls-9" d="m571.94,363.38c0-6.48,5.27-11.73,11.73-11.73s11.75,5.25,11.75,11.73-5.25,11.73-11.75,11.73-11.73-5.24-11.73-11.73Z"/>
        <path class="cls-9" d="m493.35,363.38c0-6.48,5.25-11.73,11.72-11.73s11.73,5.25,11.73,11.73-5.25,11.73-11.73,11.73-11.72-5.24-11.72-11.73Z"/>
      </g>
      <path class="cls-10" d="m316.69,440.7l-5.1-.97c-7.25-1.38-10.76-5.51-9.55-11.85.21-1.1.21-.9.75-1.85l.83-1.19c.41-.74.3-1.06.87-1.69.05-.06.2-.69.25-.75.17-.18-1.15-2.58-.97-2.74.15-.14.31-.27.47-.41.19-.16.38-.31.58-.46.22-.16.44-.32.67-.47.11-.07.22-.14.33-.21.34-.2.68-.4,1.04-.58,0,0-14.12-10.38-14.17-10.33-.48.44-.95.9-1.4,1.37-.22.22-.42.46-.63.69-.21.23-.42.47-.62.71-.27.32-.52.64-.78.97-.11.14-.22.29-.32.43-.29.39-.57.79-.84,1.19,0,0,0,0,0,0h0c-1.93,2.92-3.32,6.22-4.01,9.81-2.93,15.43,8.04,30.6,24.39,33.7l5.06.96c.94-5.47,1.85-10.95,3.14-16.34Z"/>
      <line class="cls-6" x1="544.39" y1="250.43" x2="544.39" y2="281.72"/>
      <rect class="cls-2" x="422.37" y="340.6" width="10.03" height="45.55"/>
      <rect class="cls-2" x="656.39" y="340.6" width="10.03" height="45.55"/>
      <rect class="cls-4" x="431.55" y="464.15" width="225.7" height="254.69" rx="59.1" ry="59.1"/>
      <g>
        <path class="cls-2" d="m544.59,685.45c-2.9,0-5.26-2.36-5.26-5.26s2.36-5.26,5.26-5.26,5.26,2.36,5.26,5.26-2.36,5.26-5.26,5.26Z"/>
        <g>
          <path class="cls-2" d="m565.24,685.45c-2.9,0-5.26-2.36-5.26-5.26s2.36-5.26,5.26-5.26,5.27,2.36,5.27,5.26-2.37,5.26-5.27,5.26Z"/>
          <path class="cls-2" d="m523.93,685.45c-2.9,0-5.25-2.36-5.25-5.26s2.36-5.26,5.25-5.26,5.26,2.36,5.26,5.26-2.36,5.26-5.26,5.26Z"/>
        </g>
      </g>
      <line class="cls-6" x1="452.84" y1="363.38" x2="431.55" y2="363.38"/>
      <line class="cls-6" x1="657.83" y1="363.38" x2="636.54" y2="363.38"/>
      <circle class="cls-10" cx="544.59" cy="297.53" r="4.83"/>
      <path class="cls-6" d="m635.92,528.75v72.18c0,17.72-10.25,32.95-24.95,39.76-5.27,2.44-11.12,3.8-17.27,3.8h-98.61c-4.73,0-9.29-.81-13.55-2.28-16.67-5.83-28.68-22.11-28.68-41.28v-72.18c0-24.07,18.91-43.57,42.22-43.57h98.61c23.31,0,42.22,19.5,42.22,43.57Z"/>
      <g>
        <polygon class="cls-2" points="596.74 656.43 589.24 663.93 479.1 663.93 479.1 656.43 596.74 656.43"/>
        <polygon class="cls-6" points="609.66 656.43 609.66 663.93 573.18 663.93 580.68 656.43 609.66 656.43"/>
      </g>
    </g>
    <g>
      <path class="cls-2" d="m535.44,513.04l-51.8,89.71c-3.7,6.4.92,14.41,8.32,14.41h103.59c7.39,0,12.01-8,8.32-14.41l-51.8-89.71c-3.7-6.4-12.94-6.4-16.64,0h0Z"/>
      <line class="cls-1" x1="543.43" y1="583.05" x2="543.43" y2="547.61"/>
      <circle class="cls-3" cx="543.43" cy="593.06" r="1.37"/>
    </g>
  </g>
  <g id="Character-2" data-name="Character">
    <g>
      <g>
        <path class="cls-9" d="m304.65,465.86c-.11,0-.23-.02-.33-.06l-7.2-2.56c-.52-.18-.79-.76-.61-1.28l39.39-111.03c-32.27-14.1-48.27-50.88-36.46-84.19,6.01-16.95,18.27-30.54,34.5-38.27,9.16-4.36,18.89-6.58,28.9-6.58,7.66,0,15.25,1.32,22.56,3.91,34.99,12.42,53.35,50.98,40.94,85.97-3.55,10-9.18,18.75-16.73,26.01-5.2,5-11.18,9.12-17.78,12.27-9.15,4.36-18.87,6.57-28.88,6.57-6.05,0-12.09-.83-17.98-2.46l-39.39,111.03c-.09.25-.27.45-.51.57-.14.06-.28.1-.43.1Zm58.2-234.31c-8.58,0-16.91,1.9-24.76,5.64-5.66,2.69-10.78,6.23-15.23,10.51-6.47,6.22-11.29,13.71-14.33,22.28-5.14,14.5-4.32,30.15,2.31,44.08,6.63,13.93,18.27,24.43,32.77,29.58,6.27,2.22,12.77,3.35,19.33,3.35,8.58,0,16.91-1.9,24.76-5.64,13.91-6.63,24.41-18.27,29.56-32.79,10.64-29.98-5.1-63.02-35.08-73.66-6.27-2.22-12.77-3.35-19.33-3.35Z"/>
        <path class="cls-10" d="m362.85,222.9c7.47,0,14.97,1.28,22.23,3.85,34.47,12.23,52.56,50.22,40.33,84.69-3.5,9.86-9.14,18.57-16.48,25.62-5.08,4.88-10.97,8.97-17.52,12.08-9.04,4.31-18.72,6.47-28.45,6.47-6.24,0-12.49-.89-18.61-2.68l-39.71,111.91-7.2-2.56,39.71-111.91c-32.13-13.51-48.57-50.04-36.77-83.3,5.92-16.7,18-30.09,33.99-37.71,9.05-4.31,18.74-6.48,28.47-6.48m.09,125.08c8.61,0,17.19-1.92,25.19-5.73,14.15-6.74,24.83-18.59,30.08-33.36,10.82-30.5-5.19-64.11-35.69-74.93-6.42-2.28-13.05-3.41-19.67-3.41-8.61,0-17.19,1.92-25.19,5.73-5.79,2.76-11,6.37-15.5,10.69-6.49,6.24-11.48,13.94-14.58,22.67-10.82,30.5,5.19,64.11,35.69,74.93,6.42,2.28,13.05,3.41,19.67,3.41m-.09-127.08c-10.17,0-20.03,2.25-29.33,6.67-16.48,7.85-28.91,21.64-35.02,38.84-11.89,33.51,3.97,70.48,36.15,85.06l-39.08,110.16c-.37,1.04.18,2.18,1.22,2.55l7.2,2.56c.22.08.44.12.67.12.29,0,.59-.07.86-.19.48-.23.85-.64,1.03-1.14l39.08-110.16c5.69,1.5,11.51,2.25,17.35,2.25,10.16,0,20.02-2.24,29.31-6.67,6.69-3.19,12.76-7.38,18.04-12.45,7.66-7.37,13.38-16.25,16.98-26.39,12.6-35.51-6.04-74.64-41.55-87.25-7.42-2.63-15.12-3.97-22.89-3.97h0Zm.09,125.08c-6.45,0-12.84-1.11-19-3.29-29.46-10.45-44.92-42.92-34.47-72.38,2.99-8.42,7.73-15.79,14.08-21.9,4.38-4.21,9.41-7.68,14.97-10.33,7.72-3.67,15.9-5.54,24.33-5.54,6.45,0,12.84,1.11,19,3.29,29.46,10.45,44.92,42.92,34.47,72.38-5.06,14.27-15.38,25.72-29.05,32.23-7.72,3.67-15.9,5.54-24.33,5.54h0Z"/>
      </g>
      <g>
        <path class="cls-9" d="m302.48,473.23c-1.53,0-3.04-.26-4.49-.78-3.49-1.24-6.24-3.78-7.76-7.15s-1.58-7.12-.19-10.55l36.59-89.99c.16-.39.53-.62.93-.62.11,0,.22.02.33.06l15.12,5.36c.5.18.78.72.62,1.23l-28.31,92.93c-1.73,5.69-6.89,9.52-12.84,9.52Z"/>
        <path class="cls-10" d="m327.56,365.13l15.12,5.36-28.31,92.93c-1.64,5.38-6.58,8.81-11.88,8.81-1.38,0-2.78-.23-4.16-.72h0c-6.67-2.37-10.02-9.83-7.35-16.39l36.59-89.99m0-2c-.79,0-1.54.47-1.85,1.25l-36.59,89.99c-1.5,3.68-1.43,7.71.2,11.34,1.63,3.63,4.59,6.36,8.34,7.69,1.56.55,3.18.83,4.82.83,6.39,0,11.93-4.11,13.8-10.22l28.31-92.93c.31-1.02-.24-2.11-1.24-2.47l-15.12-5.36c-.22-.08-.45-.12-.67-.12h0Z"/>
      </g>
    </g>
    <path class="cls-10" d="m342.16,413.08c-5.37-14.32-21.86-21.56-37.11-16.55l5.85,15.61c6.57-1.82,13.54,1.1,15.67,6.78,1.18,3.15.67,6.63-1.05,9.62,0,.18-.04.36-.09.55-1.49,5.02-2.64,10.26-4.61,15.14-.59,2.72-1.18,5.44-1.97,8.1l5-1.88c15.58-5.84,23.82-22.66,18.3-37.36Z"/>
  </g>
</svg>