<svg xmlns="http://www.w3.org/2000/svg" version="1.1" xmlns:xlink="http://www.w3.org/1999/xlink" xmlns:svgjs="http://svgjs.dev/svgjs" width="1500" height="1500" viewBox="0 0 1500 1500"><g transform="matrix(1,0,0,1,0,0.0004955512891910985)"><svg viewBox="0 0 280 280" data-background-color="#864d25" preserveAspectRatio="xMidYMid meet" height="1500" width="1500" xmlns="http://www.w3.org/2000/svg" xmlns:xlink="http://www.w3.org/1999/xlink"><g id="tight-bounds" transform="matrix(1,0,0,1,0,0.00009250290730733468)"><svg viewBox="0 0 280 280" height="280" width="280"><g><svg viewBox="0 0 280 280" height="280" width="280"><g><svg viewBox="0 0 280 280" height="280" width="280"><g id="textblocktransform"><svg viewBox="0 0 280 280" height="280" width="280" id="textblock"><g><svg viewBox="0 0 280 280" height="280" width="280"><g transform="matrix(1,0,0,1,57.50420886156945,57.50420886156945)"><svg viewBox="0 0 164.9915822768611 164.9915822768611" height="164.9915822768611" width="164.9915822768611"><g><circle r="82" cx="82.49579113843055" cy="82.49579113843055" fill="#000000" data-fill-palette-color="accent"></circle><svg xmlns="http://www.w3.org/2000/svg" xmlns:xlink="http://www.w3.org/1999/xlink" version="1.1" x="24.74873734152917" y="24.748737341529164" viewBox="19.785 3.475999999999999 49.95599999999999 79.74199999999996" enable-background="new 0 0 90 90" xml:space="preserve" height="115.49410759380275" width="115.49410759380275" class="icon-xg-0" data-fill-palette-color="quaternary" id="xg-0"><path d="M30.982 61.549c-0.464 0-0.841-0.376-0.841-0.84V31.573c0-0.464 0.376-0.841 0.841-0.841 0.464 0 0.84 0.376 0.84 0.841v29.136C31.822 61.173 31.446 61.549 30.982 61.549z" fill="#864d25" data-fill-palette-color="quaternary"></path><path d="M30.982 27.277c-0.464 0-0.841-0.376-0.841-0.84V15.791c0-0.464 0.376-0.84 0.841-0.84 0.464 0 0.84 0.376 0.84 0.84v10.646C31.822 26.901 31.446 27.277 30.982 27.277z" fill="#864d25" data-fill-palette-color="quaternary"></path><path d="M38.079 55.293c-0.464 0-0.84-0.377-0.84-0.84V42.312c0-0.464 0.376-0.841 0.84-0.841 0.464 0 0.841 0.376 0.841 0.841v12.141C38.919 54.916 38.543 55.293 38.079 55.293z" fill="#864d25" data-fill-palette-color="quaternary"></path><path d="M38.079 25.713c-0.464 0-0.84-0.376-0.84-0.84V9.534c0-0.464 0.376-0.84 0.84-0.84 0.464 0 0.841 0.376 0.841 0.84v15.338C38.919 25.337 38.543 25.713 38.079 25.713z" fill="#864d25" data-fill-palette-color="quaternary"></path><path d="M44.763 59.331c-0.464 0-0.84-0.376-0.84-0.841V30.826c0-0.464 0.376-0.84 0.84-0.84s0.84 0.376 0.84 0.84V58.49C45.603 58.955 45.227 59.331 44.763 59.331z" fill="#864d25" data-fill-palette-color="quaternary"></path><path d="M44.763 26.53c-0.464 0-0.84-0.376-0.84-0.84V15.044c0-0.464 0.376-0.84 0.84-0.84s0.84 0.376 0.84 0.84V25.69C45.603 26.154 45.227 26.53 44.763 26.53z" fill="#864d25" data-fill-palette-color="quaternary"></path><path d="M58.062 61.362c-0.463 0-0.84-0.376-0.84-0.841V34.375c0-0.464 0.377-0.84 0.84-0.84 0.465 0 0.841 0.376 0.841 0.84v26.147C58.903 60.986 58.527 61.362 58.062 61.362z" fill="#864d25" data-fill-palette-color="quaternary"></path><path d="M58.062 31.667c-0.463 0-0.84-0.376-0.84-0.84V15.604c0-0.464 0.377-0.84 0.84-0.84 0.465 0 0.841 0.376 0.841 0.84v15.222C58.903 31.291 58.527 31.667 58.062 31.667z" fill="#864d25" data-fill-palette-color="quaternary"></path><path d="M51.059 40.561c-0.463 0-0.84-0.376-0.84-0.84V11.916c0-0.464 0.377-0.84 0.84-0.84 0.465 0 0.841 0.376 0.841 0.84v27.805C51.899 40.185 51.523 40.561 51.059 40.561z" fill="#864d25" data-fill-palette-color="quaternary"></path><path d="M51.059 57.674c-0.463 0-0.84-0.377-0.84-0.84v-6.608c0-0.464 0.377-0.841 0.84-0.841 0.465 0 0.841 0.377 0.841 0.841v6.608C51.899 57.297 51.523 57.674 51.059 57.674z" fill="#864d25" data-fill-palette-color="quaternary"></path><path d="M44.763 72.256c-7.284 0-15.025-1.984-15.025-5.662 0-0.464 0.376-0.84 0.841-0.84s0.84 0.376 0.84 0.84c0 1.662 5.077 3.98 13.344 3.98 8.268 0 13.343-2.318 13.343-3.98 0-0.464 0.376-0.84 0.841-0.84 0.464 0 0.84 0.376 0.84 0.84C59.787 70.271 52.047 72.256 44.763 72.256z" fill="#864d25" data-fill-palette-color="quaternary"></path><g fill="#864d25" data-fill-palette-color="quaternary"><path d="M57.105 65.059c-0.146 0-0.297-0.039-0.432-0.12-0.267-0.159-0.572-0.318-0.908-0.471-0.422-0.192-0.609-0.69-0.418-1.112s0.689-0.609 1.113-0.418c0.393 0.178 0.756 0.367 1.078 0.56 0.397 0.239 0.527 0.755 0.288 1.153C57.67 64.912 57.391 65.059 57.105 65.059z" fill="#864d25" data-fill-palette-color="quaternary"></path><path d="M36.163 63.6c-0.374 0-0.715-0.251-0.813-0.63-0.116-0.449 0.154-0.907 0.603-1.024 0.646-0.168 1.333-0.316 2.042-0.444 0.454-0.081 0.894 0.222 0.976 0.679 0.083 0.457-0.221 0.895-0.678 0.977-0.667 0.119-1.313 0.26-1.918 0.416C36.303 63.591 36.232 63.6 36.163 63.6zM53.239 63.568c-0.069 0-0.138-0.008-0.208-0.025-0.605-0.154-1.251-0.291-1.92-0.408-0.457-0.08-0.764-0.516-0.684-0.973 0.081-0.458 0.516-0.765 0.973-0.684 0.711 0.125 1.398 0.271 2.045 0.435 0.449 0.114 0.722 0.571 0.607 1.021C53.957 63.314 53.614 63.568 53.239 63.568zM41.156 62.77c-0.431 0-0.797-0.328-0.836-0.766-0.041-0.463 0.3-0.871 0.763-0.912 0.67-0.059 1.366-0.103 2.065-0.129 0.468-0.029 0.854 0.344 0.872 0.808s-0.344 0.854-0.808 0.872c-0.671 0.025-1.338 0.066-1.98 0.124C41.206 62.77 41.181 62.77 41.156 62.77zM48.243 62.759c-0.024 0-0.048-0.001-0.073-0.003-0.643-0.055-1.309-0.096-1.98-0.119-0.463-0.016-0.826-0.405-0.81-0.869 0.016-0.453 0.389-0.811 0.839-0.811 0.01 0 0.02 0 0.03 0 0.699 0.025 1.394 0.066 2.065 0.124 0.462 0.04 0.805 0.446 0.766 0.909C49.042 62.428 48.676 62.759 48.243 62.759z" fill="#864d25" data-fill-palette-color="quaternary"></path><path d="M32.305 65.129c-0.281 0-0.555-0.141-0.714-0.396-0.246-0.394-0.125-0.912 0.269-1.157 0.322-0.201 0.683-0.395 1.074-0.578 0.42-0.196 0.921-0.014 1.117 0.406 0.197 0.421 0.015 0.921-0.405 1.117-0.331 0.154-0.632 0.316-0.897 0.48C32.61 65.088 32.456 65.129 32.305 65.129z" fill="#864d25" data-fill-palette-color="quaternary"></path></g><path d="M69.155 65.326c-0.009-0.006-0.015-0.013-0.022-0.018l-6.413-3.848c-0.396-0.24-0.914-0.11-1.153 0.288-0.238 0.397-0.109 0.915 0.289 1.153l5.622 3.373-5.927 8.096H27.975l-5.941-8.117 5.153-3.298c0.391-0.251 0.505-0.771 0.255-1.161s-0.769-0.504-1.161-0.255l-5.907 3.78c-0.002 0.002-0.005 0.005-0.008 0.008-0.336 0.109-0.581 0.422-0.581 0.795v7.261c0 0.183 0.06 0.36 0.169 0.505l6.779 8.995c0.159 0.211 0.407 0.335 0.671 0.335h34.717c0.265 0 0.513-0.124 0.672-0.335l6.779-8.995c0.109-0.145 0.169-0.322 0.169-0.505v-7.261C69.741 65.748 69.494 65.434 69.155 65.326zM61.703 81.537h-33.88l-6.357-8.435v-4.777l5.404 7.382c0.159 0.217 0.411 0.345 0.678 0.345h34.428c0.269 0 0.52-0.128 0.678-0.345l5.406-7.382v4.777L61.703 81.537z" fill="#864d25" data-fill-palette-color="quaternary"></path><g fill="#864d25" data-fill-palette-color="quaternary"><path d="M38.079 38.199c-0.464 0-0.84-0.376-0.84-0.84 0-1.565-1.273-2.838-2.838-2.838-0.464 0-0.841-0.376-0.841-0.84s0.376-0.84 0.841-0.84c1.565 0 2.838-1.273 2.838-2.837 0-0.464 0.376-0.84 0.84-0.84 0.464 0 0.841 0.376 0.841 0.84 0 1.564 1.273 2.837 2.838 2.837 0.464 0 0.841 0.376 0.841 0.84s-0.376 0.84-0.841 0.84c-1.565 0-2.838 1.273-2.838 2.838C38.919 37.823 38.543 38.199 38.079 38.199zM37.022 33.68c0.408 0.292 0.765 0.649 1.056 1.057 0.292-0.408 0.649-0.765 1.057-1.057-0.408-0.291-0.765-0.648-1.057-1.056C37.788 33.031 37.43 33.389 37.022 33.68z" fill="#864d25" data-fill-palette-color="quaternary"></path></g><g fill="#864d25" data-fill-palette-color="quaternary"><path d="M44.705 12.511c-0.464 0-0.84-0.376-0.84-0.84 0-1.565-1.273-2.838-2.838-2.838-0.464 0-0.84-0.376-0.84-0.84s0.376-0.84 0.84-0.84c1.565 0 2.838-1.273 2.838-2.837 0-0.464 0.376-0.84 0.84-0.84s0.841 0.376 0.841 0.84c0 1.564 1.272 2.837 2.837 2.837 0.465 0 0.842 0.376 0.842 0.84s-0.377 0.84-0.842 0.84c-1.564 0-2.837 1.273-2.837 2.838C45.546 12.135 45.169 12.511 44.705 12.511zM43.649 7.992c0.407 0.292 0.765 0.649 1.056 1.056 0.292-0.407 0.648-0.765 1.056-1.056-0.408-0.291-0.765-0.648-1.056-1.056C44.414 7.344 44.056 7.701 43.649 7.992z" fill="#864d25" data-fill-palette-color="quaternary"></path></g><path d="M51.059 47.493c-1.308 0-2.372-1.064-2.372-2.372 0-1.309 1.064-2.374 2.372-2.374 1.309 0 2.373 1.064 2.373 2.374C53.432 46.429 52.367 47.493 51.059 47.493zM51.059 44.428c-0.381 0-0.691 0.311-0.691 0.693 0 0.381 0.311 0.691 0.691 0.691 0.382 0 0.691-0.311 0.691-0.691C51.75 44.739 51.44 44.428 51.059 44.428z" fill="#864d25" data-fill-palette-color="quaternary"></path><path d="M35.791 79.572h-6.023c-0.464 0-0.84-0.377-0.84-0.841s0.376-0.841 0.84-0.841h6.023c0.464 0 0.84 0.377 0.84 0.841S36.255 79.572 35.791 79.572z" fill="#864d25" data-fill-palette-color="quaternary"></path><path d="M59.884 79.572c-0.224 0-0.437-0.09-0.595-0.247-0.156-0.156-0.246-0.376-0.246-0.594 0-0.224 0.09-0.437 0.246-0.595 0.314-0.312 0.875-0.312 1.188 0 0.157 0.158 0.247 0.376 0.247 0.595 0 0.218-0.09 0.438-0.247 0.594C60.321 79.482 60.107 79.572 59.884 79.572z" fill="#864d25" data-fill-palette-color="quaternary"></path><path d="M57.082 79.572c-0.219 0-0.438-0.09-0.594-0.247-0.156-0.156-0.246-0.376-0.246-0.594 0-0.219 0.09-0.437 0.246-0.595 0.314-0.312 0.874-0.312 1.188 0 0.157 0.158 0.247 0.376 0.247 0.595 0 0.218-0.09 0.438-0.247 0.594C57.52 79.482 57.301 79.572 57.082 79.572z" fill="#864d25" data-fill-palette-color="quaternary"></path></svg></g></svg></g><g><path d="M33.046 89.085c0.278 0.952 0.352 2.165 0.223 3.638-0.129 1.473-0.581 3.268-1.357 5.383-0.778 2.122-1.689 4.069-2.735 5.84-1.048 1.778-1.936 3.002-2.664 3.672-0.728 0.67-1.293 0.932-1.693 0.785v0c-1.404-0.515-2.792-1.25-4.164-2.207-1.365-0.954-1.947-1.708-1.744-2.261v0c0.035-0.095 0.752-1.011 2.153-2.746 1.404-1.727 2.29-3.092 2.657-4.096 0.368-1.004 0.499-1.695 0.392-2.072-0.098-0.382-0.347-0.646-0.747-0.793-0.4-0.147-0.86-0.002-1.381 0.435-0.514 0.439-1.04 1.028-1.577 1.767-0.544 0.737-1.219 1.506-2.024 2.307-0.805 0.8-1.635 1.512-2.49 2.136-0.849 0.626-1.883 1.029-3.103 1.208-1.219 0.18-2.48 0.032-3.782-0.445v0c-5.559-2.037-7.122-6.376-4.688-13.015v0c0.91-2.484 1.852-4.571 2.824-6.261 0.973-1.69 1.788-2.833 2.445-3.428 0.658-0.595 1.177-0.823 1.559-0.683v0c1.302 0.477 2.591 1.296 3.867 2.455 1.28 1.168 1.814 2.041 1.602 2.619v0c-0.035 0.095-0.268 0.377-0.699 0.847v0c-1.33 1.386-2.195 2.626-2.596 3.718-0.4 1.093-0.57 1.87-0.509 2.333 0.055 0.46 0.289 0.765 0.702 0.916 0.413 0.151 0.854 0 1.324-0.455 0.463-0.457 0.952-1.053 1.465-1.787 0.508-0.736 1.158-1.507 1.95-2.312 0.792-0.805 1.635-1.512 2.529-2.122 0.887-0.612 1.972-0.996 3.255-1.153 1.283-0.157 2.635 0.025 4.058 0.547v0c1.506 0.552 2.728 1.443 3.669 2.674v0c0.581 0.754 1.008 1.605 1.279 2.556z" fill="#000000" data-fill-palette-color="primary"></path><path d="M30.794 55.833v0l16.282 11.145c0.246 0.168 0.004 0.934-0.724 2.297-0.722 1.367-1.54 2.717-2.453 4.052-0.91 1.329-1.558 2.144-1.945 2.445-0.381 0.305-0.717 0.358-1.007 0.159v0l-15.687-10.738c-0.486-0.333-0.537-1.282-0.153-2.848 0.374-1.564 1.067-3.086 2.08-4.566v0c1.372-2.004 2.575-2.653 3.607-1.946zM19.031 54.385v0c0.994-1.452 1.988-2.444 2.984-2.975 0.996-0.532 2.055-0.414 3.176 0.354v0c1.982 1.357 1.918 3.576-0.191 6.658-2.11 3.082-4.156 3.945-6.138 2.588-1.982-1.357-1.926-3.565 0.169-6.625z" fill="#000000" data-fill-palette-color="primary"></path><path d="M65.464 32.53v0l8.079 9.303c0.195 0.225-0.226 0.9-1.265 2.026-1.034 1.131-2.159 2.225-3.375 3.281-1.221 1.06-2.057 1.687-2.507 1.881-0.446 0.199-0.784 0.165-1.015-0.101v0l-8.345-9.609c-0.785-0.904-1.336-1.466-1.651-1.685-0.315-0.228-0.598-0.426-0.85-0.592v0c-0.476-0.259-0.895-0.231-1.258 0.084v0c-0.562 0.488-0.606 1.005-0.131 1.552v0l10.335 11.901c0.195 0.225-0.221 0.896-1.25 2.013-1.024 1.122-2.144 2.211-3.36 3.267-1.221 1.06-2.062 1.692-2.522 1.894-0.456 0.208-0.799 0.179-1.029-0.087v0l-12.938-14.897c-0.368-0.424-0.157-1.352 0.635-2.783 0.796-1.426 1.838-2.698 3.125-3.816 1.287-1.118 2.337-1.375 3.148-0.771v0l1.42 1.093 0.214-0.187c-0.434-1.676-0.135-3.365 0.897-5.066v0c0.428-0.694 0.994-1.347 1.699-1.96v0c2.033-1.766 3.938-2.349 5.713-1.749 1.771 0.595 3.848 2.264 6.231 5.008z" fill="#000000" data-fill-palette-color="primary"></path><path d="M88.638 34.002v0c-0.706 0-1.513-0.117-2.422-0.351-0.915-0.232-1.756-0.612-2.523-1.141v0c-1.81-1.289-3.355-3.345-4.634-6.168v0c-0.793-1.75-1.223-3.435-1.289-5.054-0.062-1.629 0.137-3 0.597-4.116 0.458-1.121 1.1-2.163 1.927-3.124v0c1.324-1.536 2.824-2.685 4.501-3.445v0c2.823-1.28 4.885-1.951 6.186-2.013 1.301-0.063 2.19 0.43 2.664 1.478 0.472 1.042 0.788 2.239 0.949 3.593 0.158 1.347-0.065 2.158-0.669 2.432v0c-0.197 0.089-0.882 0.151-2.056 0.185-1.167 0.031-2.111 0.21-2.832 0.537-0.715 0.324-1.132 0.855-1.251 1.592-0.116 0.744 0.197 1.935 0.941 3.575 0.746 1.645 1.422 2.687 2.03 3.125 0.61 0.444 1.272 0.504 1.987 0.18 0.721-0.327 1.504-0.975 2.35-1.946 0.852-0.973 1.339-1.487 1.462-1.543v0c0.456-0.207 1.144 0.139 2.063 1.037 0.923 0.904 1.577 1.782 1.963 2.632v0c0.595 1.313 0.333 2.538-0.785 3.677-1.127 1.135-2.853 2.229-5.176 3.282-2.317 1.05-4.312 1.576-5.983 1.576z" fill="#000000" data-fill-palette-color="primary"></path><path d="M123.401 15.07l-1.306 0.189c0.248 1.714 1.193 2.453 2.834 2.215v0c0.951-0.138 2.143-0.642 3.575-1.513 1.44-0.865 2.201-1.303 2.281-1.315v0c0.502-0.073 1.271 0.585 2.306 1.973 1.034 1.382 1.603 2.431 1.708 3.147v0c0.149 1.031-0.792 1.964-2.825 2.799-2.04 0.829-4.068 1.389-6.084 1.682-2.022 0.293-3.736 0.381-5.141 0.263-1.405-0.118-2.571-0.359-3.5-0.724-0.928-0.365-1.769-0.858-2.522-1.48-0.752-0.616-1.333-1.226-1.742-1.83-0.408-0.597-0.763-1.281-1.066-2.05v0c-0.429-1.121-0.734-2.304-0.914-3.55v0c-0.696-4.801 0.077-8.294 2.317-10.478v0c1.112-1.105 2.404-1.955 3.876-2.551 1.48-0.591 3.265-1.037 5.354-1.34v0c6.676-0.967 10.351 0.872 11.025 5.52v0c0.716 4.942-2.676 7.956-10.176 9.043zM121.177 9.485v0l0.378 2.611c0.77-0.112 1.356-0.504 1.757-1.177 0.401-0.68 0.538-1.456 0.412-2.326v0c-0.23-1.587-0.757-2.321-1.581-2.202v0c-0.924 0.134-1.246 1.165-0.967 3.094z" fill="#000000" data-fill-palette-color="primary"></path><path d="M174.121 9.17v0c-0.708-0.228-1.054-1.263-1.036-3.106 0.018-1.843 0.276-3.54 0.776-5.092v0c0.114-0.354 0.639-0.626 1.574-0.816 0.929-0.191 2.249-0.207 3.96-0.047 1.718 0.162 3.517 0.546 5.398 1.152v0c7.284 2.346 10.105 6.069 8.463 11.17v0c-0.458 1.423-1.19 2.659-2.196 3.707-1.014 1.052-2.009 1.834-2.984 2.345-0.981 0.509-2.067 0.923-3.258 1.243v0c-1.375 0.339-2.649 0.544-3.823 0.614v0l7.623 2.455c0.155 0.05 0.296 0.174 0.424 0.371 0.135 0.2 0.197 0.668 0.188 1.404-0.018 0.741-0.189 1.613-0.513 2.618-0.321 0.998-0.655 1.815-1.002 2.449-0.338 0.63-0.647 1.071-0.927 1.323v0c-0.6 0.56-1.059 0.818-1.378 0.771v0l-0.206-0.023-16.685-5.373c-1.604-0.516-1.6-3.277 0.012-8.281v0c0.18-0.56 2.327-1.564 6.44-3.013v0c1.538-0.514 3.004-1.151 4.4-1.909 1.387-0.755 2.192-1.476 2.414-2.166v0c0.245-0.76-0.203-1.324-1.343-1.691-1.146-0.369-2.442-0.463-3.886-0.281-1.443 0.175-2.254 0.234-2.435 0.176z" fill="#000000" data-fill-palette-color="primary"></path><path d="M212.379 48.207c-1.454-0.557-3.084-1.475-4.89-2.755-1.811-1.283-3.221-2.518-4.229-3.704-1.003-1.183-1.706-2.555-2.109-4.118v0c-0.797-3.077 0.533-7.056 3.99-11.937v0c3.332-4.705 6.626-7.16 9.881-7.367v0c1.608-0.105 3.138 0.112 4.589 0.651 1.451 0.539 3.032 1.414 4.744 2.626 1.706 1.208 3.06 2.412 4.061 3.61 1.001 1.198 1.718 2.573 2.153 4.124v0c0.886 3.14-0.338 7.062-3.67 11.766v0c-3.457 4.881-6.769 7.456-9.936 7.726v0c-1.602 0.142-3.13-0.065-4.584-0.622zM210.732 39.416v0c-0.028 0.403 0.107 0.71 0.405 0.921 0.293 0.207 0.628 0.225 1.006 0.054 0.384-0.168 0.987-0.715 1.81-1.641 0.813-0.925 1.874-2.313 3.184-4.163 1.31-1.85 2.28-3.331 2.911-4.443 0.621-1.111 0.962-1.897 1.024-2.359 0.067-0.458-0.045-0.791-0.338-0.998-0.298-0.211-0.648-0.214-1.05-0.01v0c-0.96 0.431-2.69 2.411-5.189 5.939v0c-2.483 3.506-3.738 5.74-3.763 6.7z" fill="#000000" data-fill-palette-color="primary"></path><path d="M242.167 52.145v0c-0.45-0.593-0.14-1.639 0.93-3.14 1.07-1.5 2.254-2.744 3.553-3.729v0c0.296-0.225 0.882-0.147 1.757 0.233 0.871 0.375 1.962 1.118 3.273 2.23 1.315 1.117 2.57 2.462 3.765 4.036v0c4.628 6.095 4.807 10.763 0.539 14.003v0c-1.191 0.904-2.499 1.498-3.923 1.781-1.434 0.282-2.697 0.353-3.789 0.213-1.096-0.145-2.223-0.427-3.383-0.847v0c-1.321-0.509-2.483-1.071-3.485-1.686v0l4.842 6.378c0.098 0.129 0.143 0.312 0.135 0.547-0.004 0.241-0.221 0.66-0.65 1.258-0.439 0.597-1.079 1.214-1.919 1.853-0.835 0.634-1.577 1.112-2.225 1.434-0.638 0.323-1.144 0.507-1.517 0.553v0c-0.813 0.116-1.337 0.063-1.572-0.158v0l-0.155-0.137-10.6-13.96c-1.019-1.342 0.566-3.602 4.753-6.782v0c0.469-0.356 2.804 0.051 7.005 1.22v0c1.555 0.459 3.122 0.777 4.701 0.955 1.57 0.176 2.643 0.045 3.219-0.393v0c0.636-0.483 0.592-1.201-0.133-2.155-0.728-0.959-1.737-1.778-3.024-2.457-1.283-0.683-1.982-1.099-2.097-1.25z" fill="#000000" data-fill-palette-color="primary"></path><path d="M262.522 84.691v0c-0.264-0.696 0.33-1.612 1.781-2.748 1.451-1.136 2.939-1.993 4.463-2.57v0c0.348-0.132 0.888 0.109 1.62 0.721 0.729 0.606 1.565 1.628 2.507 3.066 0.945 1.444 1.768 3.089 2.468 4.936v0c2.712 7.156 1.562 11.684-3.449 13.583v0c-1.398 0.53-2.821 0.729-4.267 0.597-1.455-0.136-2.687-0.425-3.694-0.868-1.01-0.449-2.011-1.04-3.004-1.771v0c-1.123-0.862-2.078-1.731-2.865-2.604v0l2.838 7.488c0.058 0.152 0.049 0.34-0.026 0.563-0.072 0.23-0.399 0.571-0.98 1.023-0.59 0.448-1.379 0.859-2.365 1.233-0.981 0.372-1.827 0.62-2.54 0.745-0.704 0.129-1.241 0.163-1.612 0.101v0c-0.812-0.119-1.3-0.318-1.463-0.596v0l-0.11-0.176-6.211-16.39c-0.597-1.575 1.563-3.295 6.479-5.158v0c0.55-0.209 2.675 0.842 6.372 3.153v0c1.361 0.881 2.774 1.63 4.238 2.247 1.455 0.613 2.522 0.792 3.198 0.535v0c0.747-0.283 0.908-0.984 0.484-2.104-0.427-1.126-1.162-2.197-2.206-3.213-1.037-1.018-1.589-1.616-1.656-1.793z" fill="#000000" data-fill-palette-color="primary"></path><path d="M14.481 199.24c-0.909-0.59-1.841-1.544-2.793-2.862-0.953-1.318-1.866-3.136-2.74-5.454-0.874-2.317-1.51-4.59-1.91-6.818-0.408-2.233-0.549-3.89-0.422-4.972 0.127-1.082 0.409-1.705 0.846-1.87v0c1.538-0.58 3.221-0.961 5.047-1.144 1.823-0.189 2.849 0.018 3.075 0.619v0c0.043 0.114 0.102 1.393 0.179 3.838 0.076 2.445 0.32 4.215 0.733 5.31 0.415 1.102 0.802 1.773 1.161 2.013 0.352 0.243 0.75 0.281 1.192 0.115 0.437-0.165 0.712-0.615 0.825-1.353 0.115-0.73 0.135-1.598 0.059-2.604-0.082-1.003-0.075-2.127 0.02-3.37 0.097-1.237 0.276-2.422 0.536-3.554 0.26-1.132 0.833-2.212 1.718-3.24 0.881-1.019 2.037-1.799 3.468-2.338v0c6.084-2.294 10.497 0.192 13.238 7.46v0c1.024 2.716 1.738 5.126 2.141 7.231 0.403 2.104 0.545 3.642 0.426 4.611-0.121 0.964-0.387 1.524-0.798 1.679v0c-1.431 0.54-3.096 0.784-4.995 0.734-1.893-0.053-2.959-0.396-3.198-1.029v0c-0.041-0.108-0.051-0.509-0.031-1.203v0c0.109-2.109-0.063-3.762-0.514-4.958-0.449-1.19-0.861-1.957-1.236-2.3-0.382-0.341-0.8-0.425-1.256-0.253-0.45 0.17-0.706 0.61-0.771 1.321-0.058 0.709-0.036 1.554 0.067 2.535 0.102 0.981 0.112 2.091 0.03 3.329-0.076 1.236-0.268 2.426-0.575 3.569-0.304 1.149-0.931 2.249-1.879 3.301-0.957 1.048-2.218 1.867-3.781 2.456v0c-1.64 0.618-3.294 0.758-4.962 0.418v0c-1.021-0.215-1.988-0.621-2.9-1.217z" fill="#000000" data-fill-palette-color="primary"></path><path d="M47.3 213.514v0l-17.827 12.337c-0.267 0.185-0.958-0.362-2.073-1.639-1.115-1.278-2.176-2.645-3.185-4.103-1.009-1.458-1.593-2.444-1.752-2.96-0.159-0.515-0.083-0.881 0.229-1.096v0l17.176-11.887c0.529-0.366 1.523-0.046 2.984 0.959 1.461 1.005 2.75 2.314 3.866 3.928v0c1.517 2.192 1.711 3.679 0.582 4.461zM53.404 202.02v0c1.101 1.591 1.73 2.999 1.886 4.224 0.155 1.234-0.383 2.277-1.612 3.127v0c-2.17 1.502-4.424 0.564-6.761-2.813-2.333-3.372-2.415-5.808-0.245-7.31 2.17-1.502 4.414-0.578 6.732 2.772z" fill="#000000" data-fill-palette-color="primary"></path><path d="M69.01 244.813v0l-8.863 10.235c-0.213 0.246-1.013-0.107-2.4-1.057-1.388-0.951-2.751-2.006-4.091-3.167-1.34-1.16-2.152-1.97-2.434-2.43-0.282-0.459-0.3-0.832-0.052-1.119v0l9.155-10.573c0.864-0.997 1.39-1.683 1.579-2.056 0.193-0.378 0.363-0.719 0.509-1.023v0c0.21-0.552 0.115-1.001-0.283-1.346v0c-0.624-0.54-1.195-0.511-1.714 0.087v0l-11.341 13.098c-0.213 0.246-1.005-0.1-2.377-1.038-1.377-0.942-2.736-1.993-4.076-3.154-1.34-1.16-2.157-1.975-2.449-2.443-0.293-0.468-0.315-0.846-0.067-1.132v0l14.191-16.389c0.403-0.466 1.443-0.38 3.119 0.257 1.677 0.637 3.224 1.569 4.641 2.797 1.417 1.227 1.858 2.33 1.324 3.308v0l-0.963 1.717 0.23 0.199c1.756-0.726 3.644-0.662 5.662 0.19v0c0.812 0.354 1.607 0.868 2.385 1.541v0c2.235 1.936 3.167 3.914 2.794 5.937-0.373 2.022-1.866 4.542-4.479 7.561z" fill="#000000" data-fill-palette-color="primary"></path><path d="M79.057 265.857v0c-0.51-0.58-1.002-1.332-1.474-2.259-0.469-0.917-0.763-1.885-0.882-2.904v0c-0.253-2.431 0.32-5.194 1.718-8.29v0c0.869-1.924 1.953-3.502 3.252-4.734 1.299-1.232 2.576-2.062 3.832-2.49 1.255-0.428 2.577-0.651 3.966-0.67v0c2.231-0.024 4.268 0.38 6.112 1.213v0c3.095 1.398 5.142 2.612 6.14 3.643 1.004 1.033 1.246 2.122 0.728 3.269-0.521 1.153-1.284 2.282-2.288 3.388-0.998 1.108-1.83 1.512-2.496 1.211v0c-0.216-0.098-0.76-0.618-1.633-1.562-0.882-0.94-1.714-1.588-2.498-1.941-0.789-0.357-1.533-0.314-2.23 0.128-0.701 0.433-1.459 1.553-2.275 3.36-0.813 1.801-1.18 3.113-1.099 3.937 0.081 0.824 0.516 1.414 1.305 1.77 0.783 0.354 1.883 0.532 3.301 0.533 1.42-0.004 2.195 0.023 2.325 0.081v0c0.512 0.231 0.727 1.052 0.646 2.464-0.075 1.414-0.324 2.59-0.747 3.527v0c-0.652 1.443-1.853 2.114-3.605 2.014-1.757-0.103-3.913-0.732-6.465-1.885-2.553-1.153-4.43-2.421-5.633-3.803z" fill="#000000" data-fill-palette-color="primary"></path><path d="M122.821 269.279l-1.437-0.208c-0.272 1.882 0.492 2.953 2.294 3.214v0c1.045 0.151 2.459-0.007 4.242-0.474 1.784-0.467 2.719-0.694 2.806-0.681v0c0.549 0.079 1.156 1.012 1.821 2.797 0.658 1.784 0.93 3.068 0.817 3.851v0c-0.164 1.132-1.446 1.821-3.847 2.068-2.407 0.24-4.722 0.199-6.946-0.122-2.217-0.321-4.046-0.763-5.489-1.328-1.443-0.564-2.598-1.183-3.465-1.855-0.867-0.672-1.598-1.452-2.195-2.338-0.596-0.886-1.017-1.709-1.263-2.469-0.246-0.76-0.406-1.59-0.48-2.49v0c-0.11-1.322-0.066-2.662 0.13-4.022v0c0.764-5.284 2.671-8.727 5.72-10.33v0c1.512-0.814 3.139-1.303 4.878-1.468 1.74-0.165 3.755-0.082 6.046 0.249v0c7.34 1.062 10.64 4.148 9.9 9.257v0c-0.785 5.424-5.296 7.541-13.532 6.349zM122.214 262.699v0l-0.416 2.873c0.844 0.122 1.581-0.11 2.213-0.695 0.633-0.592 1.018-1.367 1.157-2.324v0c0.252-1.741-0.071-2.677-0.968-2.807v0c-1.018-0.147-1.68 0.837-1.986 2.953z" fill="#000000" data-fill-palette-color="primary"></path><path d="M167.826 257.539v0c-0.782 0.241-1.746-0.474-2.892-2.146-1.146-1.672-1.981-3.361-2.508-5.069v0c-0.122-0.394 0.175-0.971 0.89-1.729 0.723-0.754 1.907-1.6 3.551-2.539 1.637-0.937 3.494-1.725 5.569-2.365v0c8.037-2.478 12.924-0.9 14.66 4.732v0c0.484 1.571 0.602 3.146 0.352 4.724-0.243 1.576-0.645 2.904-1.205 3.982-0.56 1.079-1.278 2.136-2.155 3.172v0c-1.018 1.178-2.03 2.166-3.037 2.964v0l8.399-2.589c0.168-0.052 0.373-0.03 0.615 0.065 0.248 0.093 0.596 0.475 1.043 1.145 0.456 0.674 0.854 1.564 1.195 2.669 0.341 1.106 0.555 2.052 0.641 2.84 0.093 0.785 0.092 1.377-0.005 1.775v0c-0.187 0.886-0.44 1.41-0.758 1.572v0l-0.191 0.101-18.41 5.675c-1.765 0.544-3.498-1.942-5.198-7.457v0c-0.191-0.621 1.109-2.88 3.901-6.778v0c1.06-1.431 1.977-2.925 2.75-4.481 0.78-1.558 1.054-2.715 0.821-3.471v0c-0.259-0.841-1.019-1.067-2.28-0.677-1.261 0.389-2.485 1.116-3.671 2.183-1.191 1.075-1.883 1.643-2.077 1.702z" fill="#000000" data-fill-palette-color="primary"></path><path d="M225.422 250.863c-1.121 1.294-2.681 2.631-4.679 4.013-2.004 1.385-3.808 2.374-5.414 2.966-1.6 0.588-3.282 0.797-5.046 0.626v0c-3.474-0.337-7.08-3.207-10.816-8.611v0c-3.598-5.204-4.894-9.528-3.887-12.972v0c0.495-1.7 1.293-3.198 2.396-4.495 1.097-1.293 2.591-2.594 4.483-3.902 1.898-1.312 3.651-2.257 5.259-2.834 1.614-0.581 3.306-0.805 5.076-0.672v0c3.573 0.277 7.158 3.017 10.757 8.221v0c3.737 5.404 5.15 9.791 4.238 13.16v0c-0.457 1.706-1.246 3.206-2.367 4.5zM215.729 249.248v0c0.409 0.186 0.777 0.166 1.106-0.061 0.323-0.223 0.468-0.566 0.435-1.029-0.028-0.457-0.367-1.28-1.016-2.469-0.647-1.198-1.679-2.821-3.095-4.868-1.416-2.048-2.582-3.603-3.497-4.665-0.91-1.066-1.591-1.718-2.044-1.956-0.453-0.238-0.84-0.246-1.163-0.022-0.328 0.227-0.462 0.587-0.401 1.079v0c0.082 1.153 1.473 3.683 4.175 7.59v0c2.686 3.885 4.52 6.018 5.5 6.401z" fill="#000000" data-fill-palette-color="primary"></path><path d="M230.106 220.178v0c-0.502 0.647-1.702 0.616-3.6-0.094-1.898-0.709-3.554-1.611-4.966-2.706v0c-0.326-0.253-0.415-0.895-0.266-1.926 0.158-1.033 0.64-2.406 1.446-4.119 0.801-1.708 1.867-3.42 3.197-5.136v0c5.152-6.648 10.057-8.167 14.716-4.557v0c1.3 1.007 2.301 2.228 3.004 3.663 0.707 1.43 1.141 2.747 1.303 3.952 0.162 1.204 0.182 2.482 0.06 3.833v0c-0.156 1.549-0.416 2.939-0.781 4.172v0l5.384-6.947c0.108-0.139 0.288-0.239 0.541-0.3 0.257-0.066 0.761 0.046 1.511 0.336 0.76 0.289 1.597 0.789 2.512 1.498 0.915 0.709 1.634 1.36 2.158 1.955 0.528 0.589 0.867 1.074 1.016 1.455v0c0.356 0.833 0.451 1.407 0.284 1.722v0l-0.099 0.193-11.801 15.227c-1.132 1.46-3.978 0.422-8.54-3.114v0c-0.513-0.398-0.748-2.994-0.705-7.788v0c0.044-1.78-0.064-3.529-0.325-5.247-0.257-1.723-0.698-2.827-1.324-3.312v0c-0.695-0.539-1.447-0.287-2.255 0.756-0.808 1.043-1.391 2.342-1.749 3.896-0.356 1.564-0.597 2.427-0.721 2.588z" fill="#000000" data-fill-palette-color="primary"></path><path d="M249.008 191.375v0c-0.298 0.763-1.458 1.072-3.479 0.928-2.022-0.144-3.864-0.541-5.528-1.191v0c-0.384-0.15-0.651-0.741-0.8-1.773-0.14-1.036-0.066-2.489 0.222-4.359 0.286-1.864 0.824-3.808 1.615-5.831v0c3.062-7.833 7.338-10.677 12.827-8.531v0c1.531 0.599 2.837 1.487 3.916 2.664 1.082 1.171 1.872 2.312 2.368 3.421 0.496 1.109 0.876 2.33 1.141 3.661v0c0.288 1.529 0.432 2.937 0.431 4.222v0l3.2-8.186c0.064-0.164 0.209-0.311 0.434-0.441 0.228-0.136 0.743-0.171 1.545-0.104 0.811 0.063 1.755 0.305 2.832 0.726 1.078 0.421 1.952 0.843 2.623 1.265 0.673 0.416 1.135 0.785 1.386 1.108v0c0.577 0.698 0.83 1.222 0.759 1.572v0l-0.04 0.213-7.014 17.942c-0.673 1.72-3.697 1.53-9.072-0.571v0c-0.605-0.237-1.565-2.66-2.879-7.272v0c-0.461-1.72-1.059-3.367-1.795-4.941-0.734-1.58-1.469-2.514-2.206-2.802v0c-0.819-0.32-1.469 0.134-1.95 1.363-0.48 1.229-0.672 2.64-0.575 4.232 0.101 1.601 0.114 2.496 0.039 2.685z" fill="#000000" data-fill-palette-color="primary"></path><path d="M8.406 139.556c0-1.976 1.602-3.578 3.578-3.578 1.976 0 3.578 1.602 3.578 3.578 0 1.976-1.602 3.578-3.578 3.577-1.976 0-3.578-1.602-3.578-3.577z" fill="#000000" data-fill-palette-color="primary"></path><path d="M264.18 139.556c0-1.976 1.602-3.578 3.578-3.578 1.976 0 3.578 1.602 3.578 3.578 0 1.976-1.602 3.578-3.578 3.577-1.976 0-3.578-1.602-3.578-3.577z" fill="#000000" data-fill-palette-color="primary"></path></g></svg></g></svg></g></svg></g><g></g></svg></g><defs></defs></svg><rect width="280" height="280" fill="none" stroke="none" visibility="hidden"></rect></g></svg></g></svg>